HIERARCHY
ROOT Hips
{
 OFFSET 0.000000 0.000000 0.000000
 CHANNELS 6 Xposition Yposition Zposition Yrotation Xrotation Zrotation
 JOINT Chest
 {
  OFFSET 0.000000 9.525037 -0.001771
  CHANNELS 3 Yrotation Xrotation Zrotation
  JOINT Chest2
  {
   OFFSET 0.000000 10.455320 0.003217
   CHANNELS 3 Yrotation Xrotation Zrotation
   JOINT Chest3
   {
    OFFSET 0.000000 9.446594 0.000000
    CHANNELS 3 Yrotation Xrotation Zrotation
    JOINT Chest4
    {
     OFFSET 0.000000 9.446594 0.000000
     CHANNELS 3 Yrotation Xrotation Zrotation
     JOINT Neck
     {
      OFFSET 0.000000 13.308186 0.000000
      CHANNELS 3 Yrotation Xrotation Zrotation
      JOINT Head
      {
       OFFSET 0.000000 8.794412 0.007650
       CHANNELS 3 Yrotation Xrotation Zrotation
       End Site
       {
        OFFSET 0.000000 16.822591 0.003996
       }
      }
     }
     JOINT RightCollar
     {
      OFFSET -2.900669 7.427605 0.000000
      CHANNELS 3 Yrotation Xrotation Zrotation
      JOINT RightShoulder
      {
       OFFSET -13.597466 0.000000 0.000000
       CHANNELS 3 Yrotation Xrotation Zrotation
       JOINT RightElbow
       {
        OFFSET 0.000000 -29.172172 0.000000
        CHANNELS 3 Yrotation Xrotation Zrotation
        JOINT RightWrist
        {
         OFFSET 0.000000 -23.835989 -0.000000
         CHANNELS 3 Yrotation Xrotation Zrotation
         End Site
         {
          OFFSET 0.000000 -17.771889 0.000000
         }
        }
       }
      }
     }
     JOINT LeftCollar
     {
      OFFSET 2.900669 7.427605 0.000000
      CHANNELS 3 Yrotation Xrotation Zrotation
      JOINT LeftShoulder
      {
       OFFSET 13.597466 0.000000 0.000000
       CHANNELS 3 Yrotation Xrotation Zrotation
       JOINT LeftElbow
       {
        OFFSET 0.000000 -29.172172 0.000000
        CHANNELS 3 Yrotation Xrotation Zrotation
        JOINT LeftWrist
        {
         OFFSET 0.000000 -23.835989 -0.000000
         CHANNELS 3 Yrotation Xrotation Zrotation
         End Site
         {
          OFFSET 0.000000 -17.771889 0.000000
         }
        }
       }
      }
     }
    }
   }
  }
 }
 JOINT RightHip
 {
  OFFSET -7.749467 0.008677 0.000885
  CHANNELS 3 Yrotation Xrotation Zrotation
  JOINT RightKnee
  {
   OFFSET 0.000000 -40.321500 -0.000838
   CHANNELS 3 Yrotation Xrotation Zrotation
   JOINT RightAnkle
   {
    OFFSET 0.000000 -39.284740 -0.001417
    CHANNELS 3 Yrotation Xrotation Zrotation
    JOINT RightToe
    {
     OFFSET 0.000000 -6.579007 14.925618
     CHANNELS 3 Yrotation Xrotation Zrotation
     End Site
     {
      OFFSET 0.000000 -1.461561 6.290426
     }
    }
   }
  }
 }
 JOINT LeftHip
 {
  OFFSET 7.749467 0.008677 0.000885
  CHANNELS 3 Yrotation Xrotation Zrotation
  JOINT LeftKnee
  {
   OFFSET 0.000000 -40.321500 -0.000838
   CHANNELS 3 Yrotation Xrotation Zrotation
   JOINT LeftAnkle
   {
    OFFSET 0.000000 -39.284740 -0.001417
    CHANNELS 3 Yrotation Xrotation Zrotation
    JOINT LeftToe
    {
     OFFSET 0.000000 -6.579007 14.925618
     CHANNELS 3 Yrotation Xrotation Zrotation
     End Site
     {
      OFFSET 0.000000 -1.461561 6.290426
     }
    }
   }
  }
 }
}
MOTION
Frames: 5
Frame Time: 0.008333
-4.715907 66.523454 -20.638708 -26.658594 -11.209355 -0.760144 9.161374 18.448954 4.842898 1.243540 8.047709 1.120802 1.243540 8.047709 1.120802 0.916273 6.038110 0.822746 18.930405 20.481771 -5.706819 24.114489 -1.767159 -11.397706 0.103116 2.895077 11.349350 1.889994 -29.453654 -19.888470 55.309123 -36.391047 -4.888381 21.083897 -0.924529 -13.019550 -7.729449 3.759370 -11.455675 -52.857238 -14.960201 44.754068 -20.587265 -22.884749 -3.650533 -10.483080 -10.183329 19.965291 -30.841616 -39.717212 22.123516 -4.543237 77.913135 -26.337429 1.301633 -21.309486 -1.161915 -0.223470 0.502500 0.061719 39.078244 -42.657626 -20.220116 24.794314 78.835840 40.552029 -0.918122 -25.340552 7.154842 -1.458022 -0.779244 -0.838022
-4.600322 66.190401 -20.765535 -27.121464 -11.577896 -0.769516 9.439315 18.614809 4.947335 1.242695 8.082608 1.116538 1.242695 8.082608 1.116538 0.915618 6.064274 0.819481 19.014213 20.537720 -5.682503 24.219395 -1.682553 -11.389692 0.108448 2.895045 11.329776 1.772723 -29.429845 -19.830759 55.637415 -36.633928 -5.175250 21.108430 -0.873966 -13.220527 -7.746918 3.746255 -11.458325 -52.719191 -14.961475 44.729477 -20.811949 -23.104378 -3.567335 -10.597797 -10.169711 20.077250 -30.620780 -39.890916 22.327882 -5.760725 78.443783 -27.571942 1.456380 -21.285625 -1.151482 -0.330090 0.488187 -0.019806 39.238661 -42.865041 -20.138347 27.569980 79.206614 43.304807 -0.862125 -25.437699 7.146787 -1.446996 -0.805252 -0.837972
-4.479608 65.861561 -20.892206 -27.454523 -11.929088 -0.764989 9.563668 18.760317 4.999947 1.242294 8.112374 1.109183 1.242294 8.112374 1.109183 0.915350 6.086583 0.813907 19.110781 20.602975 -5.655814 24.340840 -1.583695 -11.381980 0.121524 2.912756 11.328493 1.664788 -29.399443 -19.818004 55.884659 -36.904733 -5.390209 21.126733 -0.815904 -13.420270 -7.771145 3.761637 -11.440445 -52.578519 -14.962106 44.690310 -21.044842 -23.294506 -3.420073 -10.834600 -10.029478 20.201454 -30.527048 -40.086305 22.529507 -7.099462 78.963223 -28.954073 1.534835 -21.207875 -1.120632 -0.364682 0.422540 -0.078752 39.284849 -43.049781 -20.096940 30.467371 79.532505 46.174913 -0.852881 -25.568967 7.136359 -1.394697 -0.786521 -0.819837
-4.358756 65.532362 -21.024377 -27.798921 -12.246775 -0.751719 9.690616 18.877923 5.051550 1.242306 8.140601 1.101466 1.242306 8.140601 1.101466 0.915399 6.107738 0.808060 19.208630 20.667757 -5.630231 24.464587 -1.484775 -11.375941 0.125940 2.929896 11.329804 1.581110 -29.375591 -19.840174 56.072284 -37.195453 -5.555077 21.125812 -0.758803 -13.611720 -7.795697 3.775516 -11.433504 -52.436140 -14.949827 44.625769 -21.291549 -23.500797 -3.204192 -11.508092 -9.689551 20.508389 -30.475504 -40.311260 22.778244 -8.589179 79.472347 -30.507139 1.614832 -21.108596 -1.082319 -0.384863 0.344789 -0.136204 39.340800 -43.264479 -20.068633 33.422671 79.840532 49.084171 -0.831325 -25.690511 7.130162 -1.344047 -0.768299 -0.800746
-4.241261 65.206841 -21.158959 -28.145136 -12.535706 -0.740417 9.803061 18.982310 5.100472 1.239014 8.169883 1.091635 1.239014 8.169883 1.091635 0.913001 6.129673 0.800673 19.313921 20.727005 -5.612558 24.601542 -1.389737 -11.381957 0.134348 2.924971 11.322323 1.525291 -29.356905 -19.887331 56.239023 -37.503310 -5.697368 21.080738 -0.699346 -13.769109 -7.804676 3.771247 -11.424975 -52.294929 -14.916186 44.542631 -21.571131 -23.759536 -2.877559 -12.607387 -9.181653 20.889807 -30.452209 -40.535037 23.054443 -10.268652 79.930458 -32.257967 1.719979 -21.028003 -1.044730 -0.404926 0.298531 -0.186191 39.387983 -43.510442 -20.026392 36.335710 80.152388 51.917351 -0.782594 -25.802509 7.146246 -1.307497 -0.754067 -0.786431
